{
    "asset" : {
        "generator" : "Khronos glTF Blender I/O v1.3.48",
        "version" : "2.0"
    },
    "scene" : 0,
    "scenes" : [
        {
            "name" : "Scene",
            "nodes" : [
                0
            ]
        }
    ],
    "nodes" : [
        {
            "mesh" : 0,
            "name" : "Spruce_12m"
        }
    ],
    "materials" : [
        {
            "doubleSided" : true,
            "emissiveFactor" : [
                0,
                0,
                0
            ],
            "name" : "Spruce",
            "pbrMetallicRoughness" : {
                "baseColorTexture" : {
                    "index" : 0,
                    "texCoord" : 0
                },
                "metallicFactor" : 0,
                "roughnessFactor" : 0.6429972052574158
            }
        }
    ],
    "meshes" : [
        {
            "name" : "Plane.1860",
            "primitives" : [
                {
                    "attributes" : {
                        "POSITION" : 0,
                        "NORMAL" : 1,
                        "TEXCOORD_0" : 2
                    },
                    "indices" : 3,
                    "material" : 0
                }
            ]
        }
    ],
    "textures" : [
        {
            "source" : 0
        }
    ],
    "images" : [
        {
            "mimeType" : "image/png",
            "name" : "Spruce_Col",
            "uri" : "Spruce_Col.png"
        }
    ],
    "accessors" : [
        {
            "bufferView" : 0,
            "componentType" : 5126,
            "count" : 6511,
            "max" : [
                3.186631679534912,
                12.268342018127441,
                3.3554530143737793
            ],
            "min" : [
                -3.1952762603759766,
                -0.0710485428571701,
                -2.9133505821228027
            ],
            "type" : "VEC3"
        },
        {
            "bufferView" : 1,
            "componentType" : 5126,
            "count" : 6511,
            "type" : "VEC3"
        },
        {
            "bufferView" : 2,
            "componentType" : 5126,
            "count" : 6511,
            "type" : "VEC2"
        },
        {
            "bufferView" : 3,
            "componentType" : 5123,
            "count" : 14814,
            "type" : "SCALAR"
        }
    ],
    "bufferViews" : [
        {
            "buffer" : 0,
            "byteLength" : 78132,
            "byteOffset" : 0
        },
        {
            "buffer" : 0,
            "byteLength" : 78132,
            "byteOffset" : 78132
        },
        {
            "buffer" : 0,
            "byteLength" : 52088,
            "byteOffset" : 156264
        },
        {
            "buffer" : 0,
            "byteLength" : 29628,
            "byteOffset" : 208352
        }
    ],
    "buffers" : [
        {
            "byteLength" : 237980,
            "uri" : "spruce112m.bin"
        }
    ]
}
