{
    "asset": {
        "copyright": "2020 (c) Adobe Inc.",
        "generator": "Adobe Dimension - 5769982f30ff13dfba89076b81240843d8e6af81",
        "version": "2.0",
        "extensions": {
            "KHR_xmp": {
                "packet": 0
            }
        }
    },
    "accessors": [
        {
            "bufferView": 0,
            "componentType": 5126,
            "count": 5496,
            "type": "VEC3",
            "max": [
                0.31852543354034426,
                0.8478789925575256,
                0.31852543354034426
            ],
            "min": [
                -0.31852543354034426,
                0.001711179967969656,
                -0.31852543354034426
            ]
        },
        {
            "bufferView": 1,
            "componentType": 5126,
            "count": 5496,
            "type": "VEC3"
        },
        {
            "bufferView": 2,
            "componentType": 5126,
            "count": 5496,
            "type": "VEC2"
        },
        {
            "bufferView": 3,
            "componentType": 5125,
            "count": 8148,
            "type": "SCALAR",
            "max": [
                5495.0
            ],
            "min": [
                0.0
            ]
        },
        {
            "bufferView": 4,
            "componentType": 5126,
            "count": 193654,
            "type": "VEC3",
            "max": [
                0.3939446210861206,
                0.8529160022735596,
                0.44029495120048525
            ],
            "min": [
                -0.3659173846244812,
                0.21632325649261475,
                -0.39290550351142886
            ]
        },
        {
            "bufferView": 5,
            "componentType": 5126,
            "count": 193654,
            "type": "VEC3"
        },
        {
            "bufferView": 6,
            "componentType": 5126,
            "count": 193654,
            "type": "VEC2"
        },
        {
            "bufferView": 7,
            "componentType": 5125,
            "count": 290472,
            "type": "SCALAR",
            "max": [
                193653.0
            ],
            "min": [
                0.0
            ]
        }
    ],
    "bufferViews": [
        {
            "buffer": 0,
            "byteOffset": 0,
            "byteLength": 65952,
            "target": 34962
        },
        {
            "buffer": 0,
            "byteOffset": 65952,
            "byteLength": 65952,
            "target": 34962
        },
        {
            "buffer": 0,
            "byteOffset": 131904,
            "byteLength": 43968,
            "target": 34962
        },
        {
            "buffer": 0,
            "byteOffset": 175872,
            "byteLength": 32592,
            "target": 34963
        },
        {
            "buffer": 0,
            "byteOffset": 208464,
            "byteLength": 2323848,
            "target": 34962
        },
        {
            "buffer": 0,
            "byteOffset": 2532312,
            "byteLength": 2323848,
            "target": 34962
        },
        {
            "buffer": 0,
            "byteOffset": 4856160,
            "byteLength": 1549232,
            "target": 34962
        },
        {
            "buffer": 0,
            "byteOffset": 6405392,
            "byteLength": 1161888,
            "target": 34963
        }
    ],
    "buffers": [
        {
            "byteLength": 7567280,
            "uri": "table_binary.bin"
        }
    ],
    "cameras": [
        {
            "perspective": {
                "znear": 0.000028257125450181776,
                "yfov": 0.6024156808853149,
                "zfar": 2.0,
                "aspectRatio": 1.3333333730697632
            },
            "type": "perspective",
            "name": "render_camera"
        }
    ],
    "images": [
        {
            "name": "basecolor_image_texture",
            "uri": "table_images\\basecolor_image_texture.jpg",
            "mimeType": "image/jpeg"
        },
        {
            "name": "ambientocclusion_image_texture_roughness_image_texture",
            "uri": "table_images\\ambientocclusion_image_texture_roughness_image_texture.png",
            "mimeType": "image/png"
        },
        {
            "name": "normal_image_texture",
            "uri": "table_images\\normal_image_texture.png",
            "mimeType": "image/png"
        },
        {
            "name": "basecolor_image_texture_0",
            "uri": "table_images\\basecolor_image_texture_0.jpg",
            "mimeType": "image/jpeg"
        },
        {
            "name": "roughness_image_texture",
            "uri": "table_images\\roughness_image_texture.png",
            "mimeType": "image/png"
        },
        {
            "name": "normal_image_texture_0",
            "uri": "table_images\\normal_image_texture_0.png",
            "mimeType": "image/png"
        }
    ],
    "materials": [
        {
            "pbrMetallicRoughness": {
                "baseColorTexture": {
                    "index": 0
                },
                "metallicFactor": 0.0,
                "metallicRoughnessTexture": {
                    "index": 1
                }
            },
            "normalTexture": {
                "index": 2
            },
            "occlusionTexture": {
                "index": 1
            },
            "name": "Cedar Wood",
            "doubleSided": true
        },
        {
            "pbrMetallicRoughness": {
                "baseColorTexture": {
                    "index": 3
                },
                "metallicFactor": 0.0,
                "metallicRoughnessTexture": {
                    "index": 4
                }
            },
            "normalTexture": {
                "index": 5
            },
            "name": "Polyester 2",
            "doubleSided": true
        }
    ],
    "meshes": [
        {
            "name": "Side Table",
            "primitives": [
                {
                    "attributes": {
                        "NORMAL": 1,
                        "POSITION": 0,
                        "TEXCOORD_0": 2
                    },
                    "indices": 3,
                    "material": 0
                }
            ]
        },
        {
            "name": "Cloth",
            "primitives": [
                {
                    "attributes": {
                        "POSITION": 4,
                        "NORMAL": 5,
                        "TEXCOORD_0": 6
                    },
                    "indices": 7,
                    "material": 1
                }
            ]
        }
    ],
    "nodes": [
        {
            "translation": [
                2.4609737396240236,
                1.0544782876968384,
                -0.06249309331178665
            ],
            "rotation": [
                -0.11505986750125885,
                0.7095339298248291,
                0.11919479072093964,
                0.6849200129508972
            ],
            "scale": [
                1.0000001192092896,
                1.0,
                1.0000001192092896
            ],
            "camera": 0,
            "name": "render_camera_n3d"
        },
        {
            "children": [
                2,
                3
            ],
            "name": "Cloth On Table"
        },
        {
            "mesh": 0,
            "name": "Side Table"
        },
        {
            "mesh": 1,
            "name": "Cloth"
        }
    ],
    "samplers": [
        {},
        {},
        {},
        {},
        {},
        {}
    ],
    "scenes": [
        {
            "nodes": [
                0,
                1
            ],
            "name": "scene"
        }
    ],
    "textures": [
        {
            "name": "basecolor_image_texture",
            "sampler": 0,
            "source": 0
        },
        {
            "name": "ambientocclusion_image_texture_roughness_image_texture",
            "sampler": 1,
            "source": 1
        },
        {
            "name": "normal_image_texture",
            "sampler": 2,
            "source": 2
        },
        {
            "name": "basecolor_image_texture",
            "sampler": 3,
            "source": 3
        },
        {
            "name": "roughness_image_texture",
            "sampler": 4,
            "source": 4
        },
        {
            "name": "normal_image_texture",
            "sampler": 5,
            "source": 5
        }
    ],
    "scene": 0,
    "extensions": {
        "KHR_xmp": {
            "@context": {
                "dc": "http://purl.org/dc/elements/1.1/"
            },
            "packets": [
                {
                    "dc:date": "2020-09-07T15:08:45.622-04:00",
                    "dc:format": "model/gltf+json",
                    "dc:title": "table.dn",
                    "xmp:CreatorTool": "AdobeDCXTest"
                }
            ]
        }
    },
    "extensionsUsed": [
        "KHR_xmp"
    ]
}